<svg width="660" height="75" viewBox="0 0 660 75" fill="none" xmlns="http://www.w3.org/2000/svg">
<g clip-path="url(#clip0_105_54)">
<path d="M60 21C65.5227 21 70 16.5229 70 11C70 5.47715 65.5227 1 60 1C54.4771 1 50 5.47715 50 11C50 16.5229 54.4771 21 60 21Z" fill="#818C89"/>
<path d="M386.487 31.25L368.771 60.9128V0H356.757V72.995H368.771L386.487 43.75L404.324 72.995H416.216V0H404.324V60.9128L386.487 31.25Z" fill="white"/>
<path d="M0 1H12V75H0V1Z" fill="#C57642"/>
<path d="M36 1H47V75H36V1Z" fill="#C57642"/>
<path d="M12 31H36V44H12V31Z" fill="#C57642"/>
<path d="M126.675 39.4475C126.675 46.6334 125.66 52.9337 123.63 58.3478C121.601 63.7623 118.689 67.9404 114.897 70.8816C111.132 73.8229 106.805 75.2929 101.918 75.2929C97.0836 75.2929 92.7704 73.8391 88.9781 70.9316C85.1858 68.0235 82.2479 63.8792 80.165 58.4986C78.0816 53.0839 77.0268 46.8676 77 39.8486V36.239C77 29.0531 78.0281 22.7363 80.0848 17.2884C82.1676 11.8071 85.0924 7.61254 88.858 4.70475C92.6503 1.76359 96.9766 0.292969 101.837 0.292969C106.698 0.292969 111.011 1.76359 114.777 4.70475C118.569 7.61254 121.494 11.8071 123.55 17.2884C125.633 22.7363 126.675 29.0364 126.675 36.1888V39.4475ZM114.496 36.1387C114.496 28.485 113.402 22.6694 111.212 18.6922C109.021 14.7149 105.897 12.7262 101.837 12.7262C97.8049 12.7262 94.6934 14.6981 92.5035 18.642C90.3136 22.5524 89.2052 28.3011 89.1785 35.888V39.4475C89.1785 46.901 90.2731 52.6828 92.463 56.7936C94.6535 60.9051 97.8049 62.9604 101.918 62.9604C105.95 62.9604 109.048 60.9885 111.212 57.0445C113.375 53.0672 114.47 47.2853 114.496 39.6982V36.1387ZM310.678 48.2733H301.104V74.9948H289.086V1.99993H310.759C317.649 1.99993 322.964 3.92174 326.702 7.76532C330.441 11.6089 332.311 17.0401 332.311 24.0589C332.311 29.0388 331.443 33.1999 329.707 36.5422C327.998 39.8511 325.393 42.4914 321.895 44.4634L334.514 74.2929V74.9948H321.615L310.678 48.2733ZM301.104 36.091H310.798C313.816 36.091 316.153 35.1384 317.809 33.2334C319.465 31.2948 320.292 28.6378 320.292 25.2621C320.292 21.8195 319.505 19.1123 317.929 17.1404C316.38 15.1684 313.99 14.1825 310.759 14.1825H301.104V36.091ZM249.059 60.2526H227.987L223.982 75.2929H211.203L232.915 2.29815H244.052L265.885 75.2929H253.105L249.059 60.2526ZM231.233 48.0703H245.815L238.483 20.7474L231.233 48.0703ZM596.854 44.363H573.784V63.9153H600.868V75.9974H561.765V3.00264H600.784V15.1852H573.784V32.5816H596.854V44.363ZM162.717 63.2108H188.238V75.2929H150.703V2.29816H162.717V63.2108Z" fill="white"/>
<path fill-rule="evenodd" clip-rule="evenodd" d="M471.911 57.9545H450.839L446.833 72.995H434.054L455.767 0H466.903L488.736 72.995H475.957L471.911 57.9545ZM468.666 45.7722H454.085L461.335 18.4492L468.666 45.7722Z" fill="white"/>
<path d="M542.818 60.9128H517.297V0H505.283V72.995H542.818V60.9128Z" fill="white"/>
<path d="M630.395 42.3631H653.471V30.5817H630.395V13.1853H657.396V1.00269H618.378V73.9975H657.479V61.9155H630.395V42.3631Z" fill="white"/>
</g>
<defs>
<clipPath id="clip0_105_54">
<rect width="660" height="75" fill="white"/>
</clipPath>
</defs>
</svg>
