<svg width="111" height="12" viewBox="0 0 111 12" fill="none" xmlns="http://www.w3.org/2000/svg">
<path d="M9.5 3C10.3284 3 11 2.32843 11 1.5C11 0.671573 10.3284 0 9.5 0C8.67157 0 8 0.671573 8 1.5C8 2.32843 8.67157 3 9.5 3Z" fill="#C57642"/>
<path d="M65 5L62.0206 9.74604V0H60V11.6792H62.0206L65 7L68 11.6792H70V0H68V9.74604L65 5Z" fill="#212121"/>
<path d="M0 0H2V12H0V0Z" fill="#C57642"/>
<path d="M6 0H8V12H6V0Z" fill="#C57642"/>
<path d="M2 5H6V7H2V5Z" fill="#C57642"/>
<path d="M21.3544 6.26473C21.3544 7.41447 21.1838 8.42252 20.8423 9.28878C20.501 10.1551 20.0114 10.8236 19.3736 11.2942C18.7403 11.7648 18.0126 12 17.1907 12C16.3777 12 15.6523 11.7674 15.0145 11.3022C14.3767 10.8369 13.8826 10.1738 13.5323 9.31291C13.1819 8.44655 13.0045 7.45194 13 6.3289V5.75136C13 4.60162 13.1729 3.59093 13.5188 2.71927C13.8691 1.84225 14.361 1.17113 14.9943 0.705885C15.6321 0.235299 16.3597 0 17.1772 0C17.9947 0 18.7201 0.235299 19.3534 0.705885C19.9912 1.17113 20.4831 1.84225 20.8289 2.71927C21.1792 3.59093 21.3544 4.59895 21.3544 5.74334V6.26473ZM19.3062 5.73532C19.3062 4.51072 19.1221 3.58023 18.7538 2.94387C18.3854 2.3075 17.8599 1.98931 17.1772 1.98931C16.499 1.98931 15.9757 2.30482 15.6074 2.93584C15.2391 3.56151 15.0527 4.4813 15.0482 5.69521V6.26473C15.0482 7.45728 15.2323 8.38238 15.6006 9.04011C15.969 9.69794 16.499 10.0268 17.1907 10.0268C17.8689 10.0268 18.3899 9.71129 18.7538 9.08025C19.1176 8.44388 19.3017 7.51878 19.3062 6.30484V5.73532ZM29.6103 7.56417H28V11.8396H25.9788V0.160428H29.6238C30.7826 0.160428 31.6765 0.467917 32.3052 1.08289C32.9341 1.69787 33.2485 2.56686 33.2485 3.68986C33.2485 4.48665 33.1025 5.15243 32.8106 5.68719C32.5231 6.21661 32.0851 6.63907 31.4967 6.95459L33.6191 11.7273V11.8396H31.4496L29.6103 7.56417ZM28 5.615H29.6305C30.138 5.615 30.531 5.46259 30.8096 5.15778C31.088 4.84761 31.2272 4.42248 31.2272 3.88237C31.2272 3.33156 31.0948 2.89841 30.8298 2.5829C30.5692 2.26739 30.1673 2.10964 29.6238 2.10964H28V5.615ZM53.5457 9.43314H50.0018L49.3281 11.8396H47.1789L50.8306 0.160428H52.7036L56.3755 11.8396H54.2262L53.5457 9.43314ZM50.5476 7.48398H53L51.767 3.11231L50.5476 7.48398ZM100.38 6.77809H96.5V9.90647H101.055V11.8396H94.4787V0.160428H101.041V2.10964H96.5V4.89307H100.38V6.77809ZM39.5 9.90647H43.7921V11.8396H37.4794V0.160428H39.5V9.90647Z" fill="#212121"/>
<path fill-rule="evenodd" clip-rule="evenodd" d="M79.3669 9.27272H75.823L75.1492 11.6792H73L76.6517 0H78.5247L82.1966 11.6792H80.0474L79.3669 9.27272ZM78.8211 7.32355H76.3688L77.5882 2.95188L78.8211 7.32355Z" fill="#212121"/>
<path d="M91.2921 9.74604H87V0H84.9794V11.6792H91.2921V9.74604Z" fill="#212121"/>
<path d="M106.021 6.77809H109.902V4.89307H106.021V2.10964H110.562V0.160428H104V11.8396H110.576V9.90647H106.021V6.77809Z" fill="#212121"/>
</svg>
